<?xml version="1.0" encoding="utf-8"?>
<svg viewBox="118.758 100 400 400" xmlns="http://www.w3.org/2000/svg">
  <path d="M 200.565 229.574 Q 202.396 230.453 203.201 231.625 Q 204.007 232.797 204.007 234.628 Q 204.007 236.459 203.201 237.631 Q 202.396 238.803 200.565 239.682 L 143.656 267.587 Q 142.191 268.319 140.946 268.319 Q 138.529 268.319 136.917 265.17 Q 136.038 263.412 136.038 262.094 Q 136.038 259.677 139.041 258.212 L 188.26 234.628 L 139.041 211.044 Q 136.038 209.579 136.038 207.162 Q 136.038 205.844 136.917 204.086 Q 138.529 200.936 140.946 200.936 Q 142.191 200.936 143.656 201.669 L 200.565 229.574 Z" transform="matrix(3.479483, 0, 0, 3.563293, -328.745366, -570.641671)" style="fill: rgb(85, 128, 166);"/>
  <path d="M 233.012 248.768 Q 234.44 248.768 235.049 249.461 Q 235.658 250.154 235.658 251.791 Q 235.658 253.429 235.049 254.122 Q 234.44 254.815 233.012 254.815 L 224.866 254.815 L 222.178 265.103 L 230.073 265.103 Q 231.501 265.103 232.11 265.796 Q 232.718 266.488 232.718 268.126 Q 232.718 269.764 232.11 270.457 Q 231.501 271.15 230.073 271.15 L 220.583 271.15 L 217.097 284.629 Q 216.929 285.301 216.278 285.658 Q 215.628 286.015 214.83 286.015 Q 213.654 286.015 212.73 285.385 Q 211.806 284.755 211.806 283.747 Q 211.806 283.621 211.89 283.201 L 215.04 271.15 L 204.038 271.15 L 200.552 284.629 Q 200.384 285.301 199.734 285.658 Q 199.083 286.015 198.285 286.015 Q 197.109 286.015 196.185 285.385 Q 195.261 284.755 195.261 283.747 Q 195.261 283.621 195.345 283.201 L 198.495 271.15 L 191.776 271.15 Q 190.348 271.15 189.739 270.457 Q 189.131 269.764 189.131 268.126 Q 189.131 266.488 189.739 265.796 Q 190.348 265.103 191.776 265.103 L 200.048 265.103 L 202.736 254.815 L 194.715 254.815 Q 193.288 254.815 192.679 254.122 Q 192.07 253.429 192.07 251.791 Q 192.07 250.154 192.679 249.461 Q 193.288 248.768 194.715 248.768 L 204.29 248.768 L 207.691 235.708 Q 207.859 235.036 208.51 234.679 Q 209.161 234.322 209.959 234.322 Q 211.134 234.322 212.058 234.952 Q 212.982 235.582 212.982 236.59 Q 212.982 236.716 212.898 237.136 L 209.875 248.768 L 220.835 248.768 L 224.236 235.708 Q 224.404 235.036 225.055 234.679 Q 225.706 234.322 226.504 234.322 Q 227.679 234.322 228.603 234.952 Q 229.527 235.582 229.527 236.59 Q 229.527 236.716 229.443 237.136 L 226.42 248.768 L 233.012 248.768 Z M 216.593 265.103 L 219.281 254.815 L 208.321 254.815 L 205.633 265.103 Z" transform="matrix(3.479483, 0, 0, 3.563293, -328.745366, -570.641671)" style="fill: rgb(85, 128, 166);"/>
</svg>